<?xml version="1.0" encoding="UTF-8" standalone="no"?>
<!-- Created with Inkscape (http://www.inkscape.org/) -->

<svg
   xmlns:dc="http://purl.org/dc/elements/1.1/"
   xmlns:cc="http://creativecommons.org/ns#"
   xmlns:rdf="http://www.w3.org/1999/02/22-rdf-syntax-ns#"
   xmlns:svg="http://www.w3.org/2000/svg"
   xmlns="http://www.w3.org/2000/svg"
   xmlns:sodipodi="http://sodipodi.sourceforge.net/DTD/sodipodi-0.dtd"
   xmlns:inkscape="http://www.inkscape.org/namespaces/inkscape"
   width="297mm"
   height="210mm"
   viewBox="0 0 297 210"
   version="1.1"
   id="svg8"
   inkscape:version="0.92.4 (5da689c313, 2019-01-14)"
   sodipodi:docname="reseau.svg">
  <defs
     id="defs2">
    <marker
       inkscape:stockid="Arrow1Mend"
       orient="auto"
       refY="0.0"
       refX="0.0"
       id="marker7691"
       style="overflow:visible;"
       inkscape:isstock="true">
      <path
         id="path7689"
         d="M 0.0,0.0 L 5.0,-5.0 L -12.5,0.0 L 5.0,5.0 L 0.0,0.0 z "
         style="fill-rule:evenodd;stroke:#000000;stroke-width:1pt;stroke-opacity:1;fill:#000000;fill-opacity:1"
         transform="scale(0.4) rotate(180) translate(10,0)" />
    </marker>
    <marker
       inkscape:isstock="true"
       style="overflow:visible;"
       id="marker5789"
       refX="0.0"
       refY="0.0"
       orient="auto"
       inkscape:stockid="Arrow1Mend">
      <path
         transform="scale(0.4) rotate(180) translate(10,0)"
         style="fill-rule:evenodd;stroke:#000000;stroke-width:1pt;stroke-opacity:1;fill:#000000;fill-opacity:1"
         d="M 0.0,0.0 L 5.0,-5.0 L -12.5,0.0 L 5.0,5.0 L 0.0,0.0 z "
         id="path5787" />
    </marker>
    <marker
       inkscape:stockid="Arrow1Mend"
       orient="auto"
       refY="0.0"
       refX="0.0"
       id="marker5591"
       style="overflow:visible;"
       inkscape:isstock="true"
       inkscape:collect="always">
      <path
         id="path5589"
         d="M 0.0,0.0 L 5.0,-5.0 L -12.5,0.0 L 5.0,5.0 L 0.0,0.0 z "
         style="fill-rule:evenodd;stroke:#000000;stroke-width:1pt;stroke-opacity:1;fill:#000000;fill-opacity:1"
         transform="scale(0.4) rotate(180) translate(10,0)" />
    </marker>
    <marker
       inkscape:stockid="Arrow2Mend"
       orient="auto"
       refY="0.0"
       refX="0.0"
       id="marker5497"
       style="overflow:visible;"
       inkscape:isstock="true">
      <path
         id="path5495"
         style="fill-rule:evenodd;stroke-width:0.625;stroke-linejoin:round;stroke:#000000;stroke-opacity:1;fill:#000000;fill-opacity:1"
         d="M 8.7185878,4.0337352 L -2.2072895,0.016013256 L 8.7185884,-4.0017078 C 6.9730900,-1.6296469 6.9831476,1.6157441 8.7185878,4.0337352 z "
         transform="scale(0.6) rotate(180) translate(0,0)" />
    </marker>
    <marker
       inkscape:stockid="Arrow2Mend"
       orient="auto"
       refY="0.0"
       refX="0.0"
       id="marker5409"
       style="overflow:visible;"
       inkscape:isstock="true">
      <path
         id="path5407"
         style="fill-rule:evenodd;stroke-width:0.625;stroke-linejoin:round;stroke:#000000;stroke-opacity:1;fill:#000000;fill-opacity:1"
         d="M 8.7185878,4.0337352 L -2.2072895,0.016013256 L 8.7185884,-4.0017078 C 6.9730900,-1.6296469 6.9831476,1.6157441 8.7185878,4.0337352 z "
         transform="scale(0.6) rotate(180) translate(0,0)" />
    </marker>
    <marker
       inkscape:stockid="Arrow1Mend"
       orient="auto"
       refY="0.0"
       refX="0.0"
       id="Arrow1Mend"
       style="overflow:visible;"
       inkscape:isstock="true">
      <path
         id="path4586"
         d="M 0.0,0.0 L 5.0,-5.0 L -12.5,0.0 L 5.0,5.0 L 0.0,0.0 z "
         style="fill-rule:evenodd;stroke:#000000;stroke-width:1pt;stroke-opacity:1;fill:#000000;fill-opacity:1"
         transform="scale(0.4) rotate(180) translate(10,0)" />
    </marker>
    <marker
       inkscape:stockid="Arrow2Mend"
       orient="auto"
       refY="0.0"
       refX="0.0"
       id="marker5253"
       style="overflow:visible;"
       inkscape:isstock="true">
      <path
         id="path5251"
         style="fill-rule:evenodd;stroke-width:0.625;stroke-linejoin:round;stroke:#000000;stroke-opacity:1;fill:#000000;fill-opacity:1"
         d="M 8.7185878,4.0337352 L -2.2072895,0.016013256 L 8.7185884,-4.0017078 C 6.9730900,-1.6296469 6.9831476,1.6157441 8.7185878,4.0337352 z "
         transform="scale(0.6) rotate(180) translate(0,0)" />
    </marker>
    <marker
       inkscape:stockid="Arrow2Mend"
       orient="auto"
       refY="0.0"
       refX="0.0"
       id="marker5183"
       style="overflow:visible;"
       inkscape:isstock="true">
      <path
         id="path5181"
         style="fill-rule:evenodd;stroke-width:0.625;stroke-linejoin:round;stroke:#000000;stroke-opacity:1;fill:#000000;fill-opacity:1"
         d="M 8.7185878,4.0337352 L -2.2072895,0.016013256 L 8.7185884,-4.0017078 C 6.9730900,-1.6296469 6.9831476,1.6157441 8.7185878,4.0337352 z "
         transform="scale(0.6) rotate(180) translate(0,0)" />
    </marker>
    <marker
       inkscape:stockid="Arrow2Mend"
       orient="auto"
       refY="0.0"
       refX="0.0"
       id="marker5119"
       style="overflow:visible;"
       inkscape:isstock="true">
      <path
         id="path5117"
         style="fill-rule:evenodd;stroke-width:0.625;stroke-linejoin:round;stroke:#000000;stroke-opacity:1;fill:#000000;fill-opacity:1"
         d="M 8.7185878,4.0337352 L -2.2072895,0.016013256 L 8.7185884,-4.0017078 C 6.9730900,-1.6296469 6.9831476,1.6157441 8.7185878,4.0337352 z "
         transform="scale(0.6) rotate(180) translate(0,0)" />
    </marker>
    <marker
       inkscape:stockid="Arrow2Mend"
       orient="auto"
       refY="0.0"
       refX="0.0"
       id="marker5061"
       style="overflow:visible;"
       inkscape:isstock="true">
      <path
         id="path5059"
         style="fill-rule:evenodd;stroke-width:0.625;stroke-linejoin:round;stroke:#000000;stroke-opacity:1;fill:#000000;fill-opacity:1"
         d="M 8.7185878,4.0337352 L -2.2072895,0.016013256 L 8.7185884,-4.0017078 C 6.9730900,-1.6296469 6.9831476,1.6157441 8.7185878,4.0337352 z "
         transform="scale(0.6) rotate(180) translate(0,0)" />
    </marker>
    <marker
       inkscape:stockid="Arrow2Mend"
       orient="auto"
       refY="0.0"
       refX="0.0"
       id="marker5009"
       style="overflow:visible;"
       inkscape:isstock="true">
      <path
         id="path5007"
         style="fill-rule:evenodd;stroke-width:0.625;stroke-linejoin:round;stroke:#000000;stroke-opacity:1;fill:#000000;fill-opacity:1"
         d="M 8.7185878,4.0337352 L -2.2072895,0.016013256 L 8.7185884,-4.0017078 C 6.9730900,-1.6296469 6.9831476,1.6157441 8.7185878,4.0337352 z "
         transform="scale(0.6) rotate(180) translate(0,0)" />
    </marker>
    <marker
       inkscape:stockid="Arrow2Mend"
       orient="auto"
       refY="0.0"
       refX="0.0"
       id="marker4963"
       style="overflow:visible;"
       inkscape:isstock="true">
      <path
         id="path4961"
         style="fill-rule:evenodd;stroke-width:0.625;stroke-linejoin:round;stroke:#000000;stroke-opacity:1;fill:#000000;fill-opacity:1"
         d="M 8.7185878,4.0337352 L -2.2072895,0.016013256 L 8.7185884,-4.0017078 C 6.9730900,-1.6296469 6.9831476,1.6157441 8.7185878,4.0337352 z "
         transform="scale(0.6) rotate(180) translate(0,0)" />
    </marker>
    <marker
       inkscape:stockid="Arrow2Mend"
       orient="auto"
       refY="0.0"
       refX="0.0"
       id="marker4923"
       style="overflow:visible;"
       inkscape:isstock="true">
      <path
         id="path4921"
         style="fill-rule:evenodd;stroke-width:0.625;stroke-linejoin:round;stroke:#000000;stroke-opacity:1;fill:#000000;fill-opacity:1"
         d="M 8.7185878,4.0337352 L -2.2072895,0.016013256 L 8.7185884,-4.0017078 C 6.9730900,-1.6296469 6.9831476,1.6157441 8.7185878,4.0337352 z "
         transform="scale(0.6) rotate(180) translate(0,0)" />
    </marker>
    <marker
       inkscape:stockid="Arrow2Mend"
       orient="auto"
       refY="0.0"
       refX="0.0"
       id="marker4889"
       style="overflow:visible;"
       inkscape:isstock="true">
      <path
         id="path4887"
         style="fill-rule:evenodd;stroke-width:0.625;stroke-linejoin:round;stroke:#000000;stroke-opacity:1;fill:#000000;fill-opacity:1"
         d="M 8.7185878,4.0337352 L -2.2072895,0.016013256 L 8.7185884,-4.0017078 C 6.9730900,-1.6296469 6.9831476,1.6157441 8.7185878,4.0337352 z "
         transform="scale(0.6) rotate(180) translate(0,0)" />
    </marker>
    <marker
       inkscape:stockid="Arrow2Mend"
       orient="auto"
       refY="0.0"
       refX="0.0"
       id="marker4861"
       style="overflow:visible;"
       inkscape:isstock="true">
      <path
         id="path4859"
         style="fill-rule:evenodd;stroke-width:0.625;stroke-linejoin:round;stroke:#000000;stroke-opacity:1;fill:#000000;fill-opacity:1"
         d="M 8.7185878,4.0337352 L -2.2072895,0.016013256 L 8.7185884,-4.0017078 C 6.9730900,-1.6296469 6.9831476,1.6157441 8.7185878,4.0337352 z "
         transform="scale(0.6) rotate(180) translate(0,0)" />
    </marker>
    <marker
       inkscape:stockid="Arrow2Mend"
       orient="auto"
       refY="0.0"
       refX="0.0"
       id="Arrow2Mend"
       style="overflow:visible;"
       inkscape:isstock="true">
      <path
         id="path4604"
         style="fill-rule:evenodd;stroke-width:0.625;stroke-linejoin:round;stroke:#000000;stroke-opacity:1;fill:#000000;fill-opacity:1"
         d="M 8.7185878,4.0337352 L -2.2072895,0.016013256 L 8.7185884,-4.0017078 C 6.9730900,-1.6296469 6.9831476,1.6157441 8.7185878,4.0337352 z "
         transform="scale(0.6) rotate(180) translate(0,0)" />
    </marker>
  </defs>
  <sodipodi:namedview
     id="base"
     pagecolor="#ffffff"
     bordercolor="#666666"
     borderopacity="1.0"
     inkscape:pageopacity="0.0"
     inkscape:pageshadow="2"
     inkscape:zoom="1.979899"
     inkscape:cx="529.22779"
     inkscape:cy="402.49781"
     inkscape:document-units="mm"
     inkscape:current-layer="layer1"
     showgrid="false"
     inkscape:window-width="3759"
     inkscape:window-height="2107"
     inkscape:window-x="81"
     inkscape:window-y="0"
     inkscape:window-maximized="1" />
  <metadata
     id="metadata5">
    <rdf:RDF>
      <cc:Work
         rdf:about="">
        <dc:format>image/svg+xml</dc:format>
        <dc:type
           rdf:resource="http://purl.org/dc/dcmitype/StillImage" />
        <dc:title></dc:title>
      </cc:Work>
    </rdf:RDF>
  </metadata>
  <g
     inkscape:label="Calque 1"
     inkscape:groupmode="layer"
     id="layer1"
     transform="translate(0,-87)">
    <path
       style="opacity:1;fill:#000000;fill-opacity:1;stroke-width:0.21976"
       d="m 21.644688,190.91561 c -8.742063,-0.0337 -12.5000598,12.94401 -4.816243,17.46663 7.209401,5.44924 17.982001,-3.29333 14.150041,-11.467 -1.385888,-3.58556 -5.070081,-6.06008 -8.913669,-5.98826 -0.141248,-0.007 -0.281366,-0.0108 -0.420129,-0.0114 z m 0.0801,1.99109 c 2.009748,-0.0269 4.008215,0.60235 5.494755,2.00453 6.236097,4.89071 -0.206735,15.17916 -7.293095,12.86898 -7.691815,-1.83394 -6.304591,-14.49389 1.396297,-14.85955 0.133937,-0.008 0.268059,-0.0122 0.402043,-0.014 z"
       id="path3713"
       inkscape:connector-curvature="0" />
    <path
       inkscape:connector-curvature="0"
       id="path4533"
       d="m 96.480155,266.82015 c -8.742063,-0.0337 -12.500059,12.94401 -4.816243,17.46663 7.209401,5.44924 17.981998,-3.29333 14.150038,-11.467 -1.38588,-3.58556 -5.07008,-6.06008 -8.913666,-5.98826 -0.141248,-0.007 -0.281366,-0.0108 -0.420129,-0.0114 z m 0.0801,1.99109 c 2.009748,-0.0269 4.008215,0.60235 5.494755,2.00453 6.2361,4.89071 -0.20673,15.17916 -7.293095,12.86898 -7.691815,-1.83394 -6.304591,-14.49389 1.396297,-14.85955 0.133937,-0.008 0.268059,-0.0122 0.402043,-0.014 z"
       style="opacity:1;fill:#000000;fill-opacity:1;stroke-width:0.21976" />
    <path
       style="opacity:1;fill:#000000;fill-opacity:1;stroke-width:0.21976"
       d="m 103.42916,115.1447 c -8.74206,-0.0337 -12.500056,12.94401 -4.81624,17.46663 7.2094,5.44924 17.982,-3.29333 14.15004,-11.467 -1.38589,-3.58556 -5.07008,-6.06008 -8.91367,-5.98826 -0.14125,-0.007 -0.28136,-0.0108 -0.42013,-0.0114 z m 0.0801,1.99109 c 2.00975,-0.0269 4.00822,0.60235 5.49476,2.00453 6.2361,4.89071 -0.20674,15.17916 -7.2931,12.86898 -7.691812,-1.83394 -6.304588,-14.49389 1.3963,-14.85955 0.13394,-0.008 0.26806,-0.0122 0.40204,-0.014 z"
       id="path4535"
       inkscape:connector-curvature="0" />
    <path
       inkscape:connector-curvature="0"
       id="path4537"
       d="m 80.71125,187.57474 c -8.74206,-0.0337 -12.500057,12.94401 -4.81624,17.46663 7.2094,5.44924 17.982,-3.29333 14.15004,-11.467 -1.38589,-3.58556 -5.07008,-6.06008 -8.91367,-5.98826 -0.14125,-0.007 -0.28136,-0.0108 -0.42013,-0.0114 z m 0.0801,1.99109 c 2.00975,-0.0269 4.00822,0.60235 5.49476,2.00453 6.23609,4.89071 -0.20674,15.17916 -7.293097,12.86898 -7.691815,-1.83394 -6.304591,-14.49389 1.396297,-14.85955 0.13394,-0.008 0.26806,-0.0122 0.40204,-0.014 z"
       style="opacity:1;fill:#000000;fill-opacity:1;stroke-width:0.21976" />
    <path
       style="opacity:1;fill:#000000;fill-opacity:1;stroke-width:0.21976"
       d="m 190.4254,92.293147 c -8.74206,-0.0337 -12.50006,12.944013 -4.81624,17.466633 7.2094,5.44924 17.982,-3.29333 14.15004,-11.467003 -1.38589,-3.58556 -5.07008,-6.06008 -8.91367,-5.98826 -0.14125,-0.007 -0.28136,-0.0108 -0.42013,-0.0114 z m 0.0801,1.99109 c 2.00975,-0.0269 4.00822,0.60235 5.49476,2.00453 6.23609,4.890713 -0.20674,15.179163 -7.2931,12.868983 -7.69182,-1.83394 -6.30459,-14.493893 1.3963,-14.859553 0.13394,-0.008 0.26806,-0.0122 0.40204,-0.014 z"
       id="path4539"
       inkscape:connector-curvature="0" />
    <path
       style="opacity:1;fill:#000000;fill-opacity:1;stroke-width:0.21976"
       d="m 161.96118,184.90204 c -8.74206,-0.0337 -12.50006,12.94401 -4.81624,17.46663 7.2094,5.44924 17.982,-3.29333 14.15004,-11.467 -1.38589,-3.58556 -5.07008,-6.06008 -8.91367,-5.98826 -0.14125,-0.007 -0.28136,-0.0108 -0.42013,-0.0114 z m 0.0801,1.99109 c 2.00975,-0.0269 4.00822,0.60235 5.49476,2.00453 6.23609,4.89071 -0.20674,15.17916 -7.2931,12.86898 -7.69181,-1.83394 -6.30459,-14.49389 1.3963,-14.85955 0.13394,-0.008 0.26806,-0.0122 0.40204,-0.014 z"
       id="path4541"
       inkscape:connector-curvature="0" />
    <path
       inkscape:connector-curvature="0"
       id="path4543"
       d="m 281.83157,188.37654 c -8.74206,-0.0337 -12.50006,12.94401 -4.81624,17.46663 7.2094,5.44924 17.982,-3.29333 14.15004,-11.467 -1.38589,-3.58556 -5.07008,-6.06008 -8.91367,-5.98826 -0.14125,-0.007 -0.28136,-0.0108 -0.42013,-0.0114 z m 0.0801,1.99109 c 2.00975,-0.0269 4.00822,0.60235 5.49476,2.00453 6.23609,4.89071 -0.20674,15.17916 -7.2931,12.86898 -7.69181,-1.83394 -6.30459,-14.49389 1.3963,-14.85955 0.13394,-0.008 0.26806,-0.0122 0.40204,-0.014 z"
       style="opacity:1;fill:#000000;fill-opacity:1;stroke-width:0.21976" />
    <path
       style="opacity:1;fill:#000000;fill-opacity:1;stroke-width:0.21976"
       d="m 260.18274,120.22281 c -8.74206,-0.0337 -12.50006,12.94401 -4.81624,17.46663 7.2094,5.44924 17.982,-3.29333 14.15004,-11.467 -1.38589,-3.58556 -5.07008,-6.06008 -8.91367,-5.98826 -0.14125,-0.007 -0.28136,-0.0108 -0.42013,-0.0114 z m 0.0801,1.99109 c 2.00975,-0.0269 4.00822,0.60235 5.49476,2.00453 6.23609,4.89071 -0.20674,15.17916 -7.2931,12.86898 -7.69181,-1.83394 -6.30459,-14.49389 1.3963,-14.85955 0.13394,-0.008 0.26806,-0.0122 0.40204,-0.014 z"
       id="path4545"
       inkscape:connector-curvature="0" />
    <path
       style="opacity:1;fill:#000000;fill-opacity:1;stroke-width:0.21976"
       d="m 206.06066,264.81562 c -8.74206,-0.0337 -12.50006,12.94401 -4.81624,17.46663 7.2094,5.44924 17.982,-3.29333 14.15004,-11.467 -1.38589,-3.58556 -5.07008,-6.06008 -8.91367,-5.98826 -0.14125,-0.007 -0.28136,-0.0108 -0.42013,-0.0114 z m 0.0801,1.99109 c 2.00975,-0.0269 4.00822,0.60235 5.49476,2.00453 6.23609,4.89071 -0.20674,15.17916 -7.2931,12.86898 -7.69181,-1.83394 -6.30459,-14.49389 1.3963,-14.85955 0.13394,-0.008 0.26806,-0.0122 0.40204,-0.014 z"
       id="path4547"
       inkscape:connector-curvature="0" />
    <path
       style="fill:none;stroke:#000000;stroke-width:1;stroke-linecap:butt;stroke-linejoin:miter;stroke-opacity:1;stroke-miterlimit:4;stroke-dasharray:none;marker-end:url(#marker4923)"
       d="m 31.67144,200.5157 39.422254,-2.53906"
       id="path4549"
       inkscape:connector-curvature="0" />
    <path
       style="fill:none;stroke:#000000;stroke-width:1;stroke-linecap:butt;stroke-linejoin:miter;stroke-opacity:1;stroke-miterlimit:4;stroke-dasharray:none;marker-end:url(#Arrow2Mend)"
       d="M 27.219542,194.91123 96.083394,130.89199"
       id="path4551"
       inkscape:connector-curvature="0" />
    <path
       style="fill:none;stroke:#000000;stroke-width:1;stroke-linecap:butt;stroke-linejoin:miter;stroke-opacity:1;stroke-miterlimit:4;stroke-dasharray:none;marker-end:url(#marker5061)"
       d="m 28.196934,207.59835 61.872896,62.6747"
       id="path4553"
       inkscape:connector-curvature="0" />
    <path
       style="fill:none;stroke:#000000;stroke-width:1;stroke-linecap:butt;stroke-linejoin:miter;stroke-opacity:1;stroke-miterlimit:4;stroke-dasharray:none;marker-end:url(#marker5253)"
       d="m 90.738004,197.4421 62.407436,-1.87088"
       id="path4555"
       inkscape:connector-curvature="0" />
    <path
       style="fill:none;stroke:#000000;stroke-width:1;stroke-linecap:butt;stroke-linejoin:miter;stroke-opacity:1;stroke-miterlimit:4;stroke-dasharray:none;marker-end:url(#marker5591)"
       d="m 111.31776,130.35745 45.83672,55.99297"
       id="path4557"
       inkscape:connector-curvature="0" />
    <path
       style="fill:none;stroke:#000000;stroke-width:1;stroke-linecap:butt;stroke-linejoin:miter;stroke-opacity:1;stroke-miterlimit:4;stroke-dasharray:none;marker-end:url(#marker4861)"
       d="m 112.76296,121.14433 69.11395,-17.64746"
       id="path4559"
       inkscape:connector-curvature="0" />
    <path
       style="fill:none;stroke:#000000;stroke-width:1;stroke-linecap:butt;stroke-linejoin:miter;stroke-opacity:1;stroke-miterlimit:4;stroke-dasharray:none;marker-end:url(#marker4889)"
       d="m 199.9176,105.50139 51.71666,21.24792"
       id="path4561"
       inkscape:connector-curvature="0" />
    <path
       style="fill:none;stroke:#000000;stroke-width:1;stroke-linecap:butt;stroke-linejoin:miter;stroke-opacity:1;stroke-miterlimit:4;stroke-dasharray:none;marker-end:url(#marker5497)"
       d="m 265.39864,138.37554 16.43293,50.001"
       id="path4563"
       inkscape:connector-curvature="0" />
    <path
       style="fill:none;stroke:#000000;stroke-width:1;stroke-linecap:butt;stroke-linejoin:miter;stroke-opacity:1;stroke-miterlimit:4;stroke-dasharray:none;marker-end:url(#Arrow1Mend)"
       d="m 171.8543,195.30395 101.29515,3.34087"
       id="path4565"
       inkscape:connector-curvature="0" />
    <path
       style="fill:none;stroke:#000000;stroke-width:1;stroke-linecap:butt;stroke-linejoin:miter;stroke-opacity:1;stroke-miterlimit:4;stroke-dasharray:none;marker-end:url(#marker5409)"
       d="m 211.63552,268.81124 65.37981,-62.96807"
       id="path4567"
       inkscape:connector-curvature="0" />
    <path
       style="fill:none;stroke:#000000;stroke-width:1;stroke-linecap:butt;stroke-linejoin:miter;stroke-opacity:1;stroke-miterlimit:4;stroke-dasharray:none;marker-end:url(#marker5119)"
       d="m 83.655362,206.52927 12.824791,60.29085"
       id="path4569"
       inkscape:connector-curvature="0" />
    <path
       style="fill:none;stroke:#000000;stroke-width:1;stroke-linecap:butt;stroke-linejoin:miter;stroke-opacity:1;stroke-miterlimit:4;stroke-dasharray:none;marker-end:url(#marker5183)"
       d="m 106.77417,276.55388 90.20347,-0.26727"
       id="path4571"
       inkscape:connector-curvature="0" />
    <path
       style="fill:none;stroke:#000000;stroke-width:1;stroke-linecap:butt;stroke-linejoin:miter;stroke-opacity:1;stroke-miterlimit:4;stroke-dasharray:none;marker-end:url(#marker4963)"
       d="M 90.045049,193.57437 185.60916,109.75978"
       id="path4573"
       inkscape:connector-curvature="0" />
    <path
       style="fill:none;stroke:#000000;stroke-width:1;stroke-linecap:butt;stroke-linejoin:miter;stroke-opacity:1;stroke-miterlimit:4;stroke-dasharray:none;marker-end:url(#marker5009)"
       d="m 167.53604,188.89766 85.16729,-53.59572"
       id="path4575"
       inkscape:connector-curvature="0" />
    <text
       xml:space="preserve"
       style="font-style:normal;font-weight:normal;font-size:10.58333302px;line-height:1.25;font-family:sans-serif;letter-spacing:0px;word-spacing:0px;fill:#000000;fill-opacity:1;stroke:none;stroke-width:0.26458332"
       x="18.307962"
       y="204.65839"
       id="text5691"><tspan
         sodipodi:role="line"
         id="tspan5689"
         x="18.307962"
         y="204.65839"
         style="stroke-width:0.26458332">E</tspan></text>
    <text
       xml:space="preserve"
       style="font-style:normal;font-weight:normal;font-size:10.58333302px;line-height:1.25;font-family:sans-serif;letter-spacing:0px;word-spacing:0px;fill:#000000;fill-opacity:1;stroke:none;stroke-width:0.26458332"
       x="278.2276"
       y="201.58478"
       id="text5695"><tspan
         sodipodi:role="line"
         id="tspan5693"
         x="278.2276"
         y="201.58478"
         style="stroke-width:0.26458332">S</tspan></text>
    <text
       xml:space="preserve"
       style="font-style:normal;font-weight:normal;font-size:10.58333302px;line-height:1.25;font-family:sans-serif;letter-spacing:0px;word-spacing:0px;fill:#000000;fill-opacity:1;stroke:none;stroke-width:0.26458332"
       x="100.49334"
       y="128.08566"
       id="text5699"><tspan
         sodipodi:role="line"
         id="tspan5697"
         x="100.49334"
         y="128.08566"
         style="stroke-width:0.26458332">a</tspan></text>
    <text
       xml:space="preserve"
       style="font-style:normal;font-weight:normal;font-size:10.58333302px;line-height:1.25;font-family:sans-serif;letter-spacing:0px;word-spacing:0px;fill:#000000;fill-opacity:1;stroke:none;stroke-width:0.26458332"
       x="77.6418"
       y="201.18388"
       id="text5703"><tspan
         sodipodi:role="line"
         id="tspan5701"
         x="77.6418"
         y="201.18388"
         style="stroke-width:0.26458332">b</tspan></text>
    <text
       xml:space="preserve"
       style="font-style:normal;font-weight:normal;font-size:10.58333302px;line-height:1.25;font-family:sans-serif;letter-spacing:0px;word-spacing:0px;fill:#000000;fill-opacity:1;stroke:none;stroke-width:0.26458332"
       x="187.22229"
       y="104.83321"
       id="text5707"><tspan
         sodipodi:role="line"
         id="tspan5705"
         x="187.22229"
         y="104.83321"
         style="stroke-width:0.26458332">c</tspan></text>
    <text
       xml:space="preserve"
       style="font-style:normal;font-weight:normal;font-size:10.58333302px;line-height:1.25;font-family:sans-serif;letter-spacing:0px;word-spacing:0px;fill:#000000;fill-opacity:1;stroke:none;stroke-width:0.26458332"
       x="158.7581"
       y="198.11028"
       id="text5711"><tspan
         sodipodi:role="line"
         id="tspan5709"
         x="158.7581"
         y="198.11028"
         style="stroke-width:0.26458332">d</tspan></text>
    <text
       xml:space="preserve"
       style="font-style:normal;font-weight:normal;font-size:10.58333302px;line-height:1.25;font-family:sans-serif;letter-spacing:0px;word-spacing:0px;fill:#000000;fill-opacity:1;stroke:none;stroke-width:0.26458332"
       x="93.410698"
       y="279.22659"
       id="text5715"><tspan
         sodipodi:role="line"
         id="tspan5713"
         x="93.410698"
         y="279.22659"
         style="stroke-width:0.26458332">e</tspan></text>
    <text
       xml:space="preserve"
       style="font-style:normal;font-weight:normal;font-size:10.58333302px;line-height:1.25;font-family:sans-serif;letter-spacing:0px;word-spacing:0px;fill:#000000;fill-opacity:1;stroke:none;stroke-width:0.26458332"
       x="203.79301"
       y="278.42477"
       id="text5719"><tspan
         sodipodi:role="line"
         id="tspan5717"
         x="203.79301"
         y="278.42477"
         style="stroke-width:0.26458332">f</tspan></text>
    <text
       xml:space="preserve"
       style="font-style:normal;font-weight:normal;font-size:10.58333302px;line-height:1.25;font-family:sans-serif;letter-spacing:0px;word-spacing:0px;fill:#000000;fill-opacity:1;stroke:none;stroke-width:0.26458332"
       x="256.71237"
       y="132.22835"
       id="text5723"><tspan
         sodipodi:role="line"
         id="tspan5721"
         x="256.71237"
         y="132.22835"
         style="stroke-width:0.26458332">g</tspan></text>
    <text
       xml:space="preserve"
       style="font-style:normal;font-weight:normal;font-size:10.58333302px;line-height:1.25;font-family:sans-serif;letter-spacing:0px;word-spacing:0px;fill:#000000;fill-opacity:1;stroke:none;stroke-width:0.26458332"
       x="51.182114"
       y="160.02437"
       id="text5727"><tspan
         sodipodi:role="line"
         id="tspan5725"
         x="51.182114"
         y="160.02437"
         style="stroke-width:0.26458332">5</tspan></text>
    <text
       xml:space="preserve"
       style="font-style:normal;font-weight:normal;font-size:10.58333302px;line-height:1.25;font-family:sans-serif;letter-spacing:0px;word-spacing:0px;fill:#000000;fill-opacity:1;stroke:none;stroke-width:0.26458332"
       x="47.974876"
       y="194.10124"
       id="text5731"><tspan
         sodipodi:role="line"
         id="tspan5729"
         x="47.974876"
         y="194.10124"
         style="stroke-width:0.26458332">10</tspan></text>
    <text
       xml:space="preserve"
       style="font-style:normal;font-weight:normal;font-size:10.58333302px;line-height:1.25;font-family:sans-serif;letter-spacing:0px;word-spacing:0px;fill:#000000;fill-opacity:1;stroke:none;stroke-width:0.26458332"
       x="60.00201"
       y="233.65714"
       id="text5735"><tspan
         sodipodi:role="line"
         id="tspan5733"
         x="60.00201"
         y="233.65714"
         style="stroke-width:0.26458332">8</tspan></text>
    <text
       xml:space="preserve"
       style="font-style:normal;font-weight:normal;font-size:10.58333302px;line-height:1.25;font-family:sans-serif;letter-spacing:0px;word-spacing:0px;fill:#000000;fill-opacity:1;stroke:none;stroke-width:0.26458332"
       x="92.475258"
       y="236.998"
       id="text5739"><tspan
         sodipodi:role="line"
         id="tspan5737"
         x="92.475258"
         y="236.998"
         style="stroke-width:0.26458332">1</tspan></text>
    <text
       xml:space="preserve"
       style="font-style:normal;font-weight:normal;font-size:10.58333302px;line-height:1.25;font-family:sans-serif;letter-spacing:0px;word-spacing:0px;fill:#000000;fill-opacity:1;stroke:none;stroke-width:0.26458332"
       x="108.51142"
       y="169.91335"
       id="text5743"><tspan
         sodipodi:role="line"
         id="tspan5741"
         x="108.51142"
         y="169.91335"
         style="stroke-width:0.26458332">8</tspan></text>
    <text
       xml:space="preserve"
       style="font-style:normal;font-weight:normal;font-size:10.58333302px;line-height:1.25;font-family:sans-serif;letter-spacing:0px;word-spacing:0px;fill:#000000;fill-opacity:1;stroke:none;stroke-width:0.26458332"
       x="121.60764"
       y="192.49762"
       id="text5747"><tspan
         sodipodi:role="line"
         id="tspan5745"
         x="121.60764"
         y="192.49762"
         style="stroke-width:0.26458332">2</tspan></text>
    <text
       xml:space="preserve"
       style="font-style:normal;font-weight:normal;font-size:10.58333302px;line-height:1.25;font-family:sans-serif;letter-spacing:0px;word-spacing:0px;fill:#000000;fill-opacity:1;stroke:none;stroke-width:0.26458332"
       x="134.16931"
       y="272.01028"
       id="text5751"><tspan
         sodipodi:role="line"
         id="tspan5749"
         x="134.16931"
         y="272.01028"
         style="stroke-width:0.26458332">4</tspan><tspan
         sodipodi:role="line"
         x="134.16931"
         y="285.23944"
         style="stroke-width:0.26458332"
         id="tspan5753" /></text>
    <text
       xml:space="preserve"
       style="font-style:normal;font-weight:normal;font-size:10.58333302px;line-height:1.25;font-family:sans-serif;letter-spacing:0px;word-spacing:0px;fill:#000000;fill-opacity:1;stroke:none;stroke-width:0.26458332"
       x="242.68073"
       y="247.82242"
       id="text5757"><tspan
         sodipodi:role="line"
         id="tspan5755"
         x="242.68073"
         y="247.82242"
         style="stroke-width:0.26458332">6</tspan></text>
    <text
       xml:space="preserve"
       style="font-style:normal;font-weight:normal;font-size:10.58333302px;line-height:1.25;font-family:sans-serif;letter-spacing:0px;word-spacing:0px;fill:#000000;fill-opacity:1;stroke:none;stroke-width:0.26458332"
       x="217.9583"
       y="193.5667"
       id="text5761"><tspan
         sodipodi:role="line"
         id="tspan5759"
         x="217.9583"
         y="193.5667"
         style="stroke-width:0.26458332">6</tspan></text>
    <text
       xml:space="preserve"
       style="font-style:normal;font-weight:normal;font-size:10.58333302px;line-height:1.25;font-family:sans-serif;letter-spacing:0px;word-spacing:0px;fill:#000000;fill-opacity:1;stroke:none;stroke-width:0.26458332"
       x="275.82214"
       y="164.43431"
       id="text5765"><tspan
         sodipodi:role="line"
         id="tspan5763"
         x="275.82214"
         y="164.43431"
         style="stroke-width:0.26458332">10</tspan></text>
    <text
       xml:space="preserve"
       style="font-style:normal;font-weight:normal;font-size:10.58333302px;line-height:1.25;font-family:sans-serif;letter-spacing:0px;word-spacing:0px;fill:#000000;fill-opacity:1;stroke:none;stroke-width:0.26458332"
       x="229.58453"
       y="112.58403"
       id="text5769"><tspan
         sodipodi:role="line"
         id="tspan5767"
         x="229.58453"
         y="112.58403"
         style="stroke-width:0.26458332">7</tspan></text>
    <text
       xml:space="preserve"
       style="font-style:normal;font-weight:normal;font-size:10.58333302px;line-height:1.25;font-family:sans-serif;letter-spacing:0px;word-spacing:0px;fill:#000000;fill-opacity:1;stroke:none;stroke-width:0.26458332"
       x="135.37201"
       y="109.7777"
       id="text5773"><tspan
         sodipodi:role="line"
         id="tspan5771"
         x="135.37201"
         y="109.7777"
         style="stroke-width:0.26458332">7</tspan></text>
    <text
       xml:space="preserve"
       style="font-style:normal;font-weight:normal;font-size:10.58333302px;line-height:1.25;font-family:sans-serif;letter-spacing:0px;word-spacing:0px;fill:#000000;fill-opacity:1;stroke:none;stroke-width:0.26458332"
       x="193.7704"
       y="165.36977"
       id="text5777"><tspan
         sodipodi:role="line"
         id="tspan5775"
         x="193.7704"
         y="165.36977"
         style="stroke-width:0.26458332">4</tspan></text>
    <path
       style="fill:none;stroke:#000000;stroke-width:1;stroke-linecap:butt;stroke-linejoin:miter;stroke-opacity:1;stroke-miterlimit:4;stroke-dasharray:none;marker-end:url(#marker7691)"
       d="m 166.50891,202.92113 35.94775,63.34288"
       id="path7687"
       inkscape:connector-curvature="0" />
    <text
       xml:space="preserve"
       style="font-style:normal;font-weight:normal;font-size:10.58333302px;line-height:1.25;font-family:sans-serif;letter-spacing:0px;word-spacing:0px;fill:#000000;fill-opacity:1;stroke:none;stroke-width:0.26458332"
       x="188.29138"
       y="234.19167"
       id="text7803"><tspan
         sodipodi:role="line"
         id="tspan7801"
         x="188.29138"
         y="234.19167"
         style="stroke-width:0.26458332">2</tspan></text>
    <text
       xml:space="preserve"
       style="font-style:normal;font-weight:normal;font-size:10.58333302px;line-height:1.25;font-family:sans-serif;letter-spacing:0px;word-spacing:0px;fill:#000000;fill-opacity:1;stroke:none;stroke-width:0.26458332"
       x="123.47852"
       y="143.05276"
       id="text7807"><tspan
         sodipodi:role="line"
         id="tspan7805"
         x="123.47852"
         y="143.05276"
         style="stroke-width:0.26458332">10</tspan></text>
  </g>
</svg>
