<?xml version="1.0" encoding="UTF-8" standalone="no"?>
<!DOCTYPE svg PUBLIC "-//W3C//DTD SVG 1.1//EN"
 "http://www.w3.org/Graphics/SVG/1.1/DTD/svg11.dtd">
<!-- Generated by graphviz version 2.38.0 (20140413.2041)
 -->
<!-- Title: exemple Pages: 1 -->
<svg width="414pt" height="740pt"
 viewBox="0.00 0.00 414.00 740.00" xmlns="http://www.w3.org/2000/svg" xmlns:xlink="http://www.w3.org/1999/xlink">
<g id="graph0" class="graph" transform="scale(1 1) rotate(0) translate(4 736)">
<title>exemple</title>
<polygon fill="white" stroke="none" points="-4,4 -4,-736 410,-736 410,4 -4,4"/>
<!-- A -->
<g id="node1" class="node"><title>A</title>
<ellipse fill="none" stroke="black" cx="57" cy="-714" rx="27" ry="18"/>
<text text-anchor="middle" x="57" y="-710.3" font-family="Times,serif" font-size="14.00">A</text>
</g>
<!-- B -->
<g id="node2" class="node"><title>B</title>
<ellipse fill="none" stroke="black" cx="123" cy="-627" rx="27" ry="18"/>
<text text-anchor="middle" x="123" y="-623.3" font-family="Times,serif" font-size="14.00">B</text>
</g>
<!-- A&#45;&gt;B -->
<g id="edge1" class="edge"><title>A&#45;&gt;B</title>
<path fill="none" stroke="black" d="M67.1552,-696.823C73.6361,-686.824 82.4071,-673.87 91,-663 94.3602,-658.749 98.1076,-654.371 101.821,-650.211"/>
<polygon fill="black" stroke="black" points="104.641,-652.314 108.81,-642.574 99.4767,-647.589 104.641,-652.314"/>
<text text-anchor="middle" x="94.5" y="-666.8" font-family="Times,serif" font-size="14.00">1</text>
</g>
<!-- E -->
<g id="node3" class="node"><title>E</title>
<ellipse fill="none" stroke="black" cx="81" cy="-105" rx="27" ry="18"/>
<text text-anchor="middle" x="81" y="-101.3" font-family="Times,serif" font-size="14.00">E</text>
</g>
<!-- A&#45;&gt;E -->
<g id="edge2" class="edge"><title>A&#45;&gt;E</title>
<path fill="none" stroke="black" d="M40.5132,-699.528C23.679,-684.153 0,-657.317 0,-628 0,-628 0,-628 0,-191 0,-166.35 7.49185,-159.305 24,-141 31.291,-132.915 40.8862,-126.058 50.1201,-120.614"/>
<polygon fill="black" stroke="black" points="52.0652,-123.538 59.135,-115.647 48.6873,-117.407 52.0652,-123.538"/>
<text text-anchor="middle" x="3.5" y="-405.8" font-family="Times,serif" font-size="14.00">7</text>
</g>
<!-- B&#45;&gt;A -->
<g id="edge3" class="edge"><title>B&#45;&gt;A</title>
<path fill="none" stroke="black" d="M116.642,-644.727C112.294,-654.932 105.894,-667.91 98,-678 93.5828,-683.646 88.1386,-689.046 82.6774,-693.843"/>
<polygon fill="black" stroke="black" points="80.2409,-691.317 74.7815,-700.397 84.7116,-696.703 80.2409,-691.317"/>
<text text-anchor="middle" x="110.5" y="-666.8" font-family="Times,serif" font-size="14.00">1</text>
</g>
<!-- C -->
<g id="node4" class="node"><title>C</title>
<ellipse fill="none" stroke="black" cx="164" cy="-279" rx="27" ry="18"/>
<text text-anchor="middle" x="164" y="-275.3" font-family="Times,serif" font-size="14.00">C</text>
</g>
<!-- B&#45;&gt;C -->
<g id="edge4" class="edge"><title>B&#45;&gt;C</title>
<path fill="none" stroke="black" d="M111.087,-610.674C99.6176,-594.354 84,-567.303 84,-541 84,-541 84,-541 84,-365 84,-334.587 111.494,-310.62 134.246,-295.993"/>
<polygon fill="black" stroke="black" points="136.264,-298.863 142.981,-290.669 132.621,-292.885 136.264,-298.863"/>
<text text-anchor="middle" x="87.5" y="-449.3" font-family="Times,serif" font-size="14.00">2</text>
</g>
<!-- D -->
<g id="node5" class="node"><title>D</title>
<ellipse fill="none" stroke="black" cx="223" cy="-540" rx="27" ry="18"/>
<text text-anchor="middle" x="223" y="-536.3" font-family="Times,serif" font-size="14.00">D</text>
</g>
<!-- B&#45;&gt;D -->
<g id="edge5" class="edge"><title>B&#45;&gt;D</title>
<path fill="none" stroke="black" d="M135.028,-610.56C143.583,-600.127 155.698,-586.411 168,-576 175.951,-569.271 185.293,-562.857 193.999,-557.401"/>
<polygon fill="black" stroke="black" points="196.021,-560.268 202.756,-552.089 192.391,-554.283 196.021,-560.268"/>
<text text-anchor="middle" x="171.5" y="-579.8" font-family="Times,serif" font-size="14.00">4</text>
</g>
<!-- E&#45;&gt;A -->
<g id="edge6" class="edge"><title>E&#45;&gt;A</title>
<path fill="none" stroke="black" d="M68.0986,-120.83C55.4327,-136.954 38,-164.043 38,-191 38,-628 38,-628 38,-628 38,-648.035 43.0899,-670.102 48.0008,-686.729"/>
<polygon fill="black" stroke="black" points="44.6707,-687.807 50.9883,-696.312 51.3535,-685.724 44.6707,-687.807"/>
<text text-anchor="middle" x="41.5" y="-405.8" font-family="Times,serif" font-size="14.00">7</text>
</g>
<!-- G -->
<g id="node6" class="node"><title>G</title>
<ellipse fill="none" stroke="black" cx="150" cy="-192" rx="27" ry="18"/>
<text text-anchor="middle" x="150" y="-188.3" font-family="Times,serif" font-size="14.00">G</text>
</g>
<!-- E&#45;&gt;G -->
<g id="edge7" class="edge"><title>E&#45;&gt;G</title>
<path fill="none" stroke="black" d="M93.229,-121.065C103.793,-134.079 119.223,-153.087 131.331,-168.002"/>
<polygon fill="black" stroke="black" points="128.644,-170.246 137.664,-175.804 134.079,-165.834 128.644,-170.246"/>
<text text-anchor="middle" x="122.5" y="-144.8" font-family="Times,serif" font-size="14.00">2</text>
</g>
<!-- I -->
<g id="node7" class="node"><title>I</title>
<ellipse fill="none" stroke="black" cx="131" cy="-18" rx="27" ry="18"/>
<text text-anchor="middle" x="131" y="-14.3" font-family="Times,serif" font-size="14.00">I</text>
</g>
<!-- E&#45;&gt;I -->
<g id="edge8" class="edge"><title>E&#45;&gt;I</title>
<path fill="none" stroke="black" d="M81.2459,-86.8126C82.0598,-76.6823 84.2914,-63.944 90,-54 93.5063,-47.8923 98.4938,-42.3511 103.789,-37.5711"/>
<polygon fill="black" stroke="black" points="106.121,-40.1851 111.63,-31.1353 101.68,-34.7743 106.121,-40.1851"/>
<text text-anchor="middle" x="93.5" y="-57.8" font-family="Times,serif" font-size="14.00">4</text>
</g>
<!-- C&#45;&gt;B -->
<g id="edge9" class="edge"><title>C&#45;&gt;B</title>
<path fill="none" stroke="black" d="M161.955,-297.262C155.311,-353.327 134.302,-530.618 126.216,-598.861"/>
<polygon fill="black" stroke="black" points="122.734,-598.499 125.033,-608.842 129.686,-599.323 122.734,-598.499"/>
<text text-anchor="middle" x="148.5" y="-449.3" font-family="Times,serif" font-size="14.00">2</text>
</g>
<!-- C&#45;&gt;D -->
<g id="edge10" class="edge"><title>C&#45;&gt;D</title>
<path fill="none" stroke="black" d="M170.162,-296.604C172.18,-302.379 174.33,-308.931 176,-315 195.302,-385.134 211.032,-469.508 218.429,-511.892"/>
<polygon fill="black" stroke="black" points="215.018,-512.71 220.168,-521.969 221.916,-511.52 215.018,-512.71"/>
<text text-anchor="middle" x="203.5" y="-405.8" font-family="Times,serif" font-size="14.00">1</text>
</g>
<!-- C&#45;&gt;G -->
<g id="edge12" class="edge"><title>C&#45;&gt;G</title>
<path fill="none" stroke="black" d="M157.254,-261.531C155.189,-255.767 153.159,-249.188 152,-243 150.646,-235.771 149.969,-227.856 149.669,-220.498"/>
<polygon fill="black" stroke="black" points="153.164,-220.19 149.465,-210.262 146.165,-220.33 153.164,-220.19"/>
<text text-anchor="middle" x="155.5" y="-231.8" font-family="Times,serif" font-size="14.00">5</text>
</g>
<!-- F -->
<g id="node8" class="node"><title>F</title>
<ellipse fill="none" stroke="black" cx="267" cy="-366" rx="27" ry="18"/>
<text text-anchor="middle" x="267" y="-362.3" font-family="Times,serif" font-size="14.00">F</text>
</g>
<!-- C&#45;&gt;F -->
<g id="edge11" class="edge"><title>C&#45;&gt;F</title>
<path fill="none" stroke="black" d="M189.061,-285.889C206.347,-291.06 228.853,-300.134 244,-315 250.568,-321.446 255.449,-330.119 258.984,-338.431"/>
<polygon fill="black" stroke="black" points="255.737,-339.74 262.534,-347.867 262.288,-337.275 255.737,-339.74"/>
<text text-anchor="middle" x="257.5" y="-318.8" font-family="Times,serif" font-size="14.00">1</text>
</g>
<!-- D&#45;&gt;B -->
<g id="edge13" class="edge"><title>D&#45;&gt;B</title>
<path fill="none" stroke="black" d="M209.908,-556.265C200.665,-566.619 187.71,-580.314 175,-591 167.537,-597.274 158.929,-603.444 150.891,-608.813"/>
<polygon fill="black" stroke="black" points="148.945,-605.904 142.474,-614.293 152.764,-611.77 148.945,-605.904"/>
<text text-anchor="middle" x="193.5" y="-579.8" font-family="Times,serif" font-size="14.00">4</text>
</g>
<!-- D&#45;&gt;C -->
<g id="edge14" class="edge"><title>D&#45;&gt;C</title>
<path fill="none" stroke="black" d="M216.574,-522.34C214.408,-516.56 212.028,-510.02 210,-504 205.107,-489.477 204.146,-485.754 200,-471 193.292,-447.131 191.082,-441.267 186,-417 178.066,-379.117 171.425,-334.821 167.579,-307.084"/>
<polygon fill="black" stroke="black" points="171.019,-306.402 166.199,-296.967 164.083,-307.349 171.019,-306.402"/>
<text text-anchor="middle" x="189.5" y="-405.8" font-family="Times,serif" font-size="14.00">1</text>
</g>
<!-- D&#45;&gt;F -->
<g id="edge15" class="edge"><title>D&#45;&gt;F</title>
<path fill="none" stroke="black" d="M227.299,-522.195C234.955,-492.267 251.007,-429.518 260.182,-393.652"/>
<polygon fill="black" stroke="black" points="263.596,-394.429 262.684,-383.873 256.814,-392.694 263.596,-394.429"/>
<text text-anchor="middle" x="252.5" y="-449.3" font-family="Times,serif" font-size="14.00">2</text>
</g>
<!-- H -->
<g id="node9" class="node"><title>H</title>
<ellipse fill="none" stroke="black" cx="346" cy="-453" rx="27" ry="18"/>
<text text-anchor="middle" x="346" y="-449.3" font-family="Times,serif" font-size="14.00">H</text>
</g>
<!-- D&#45;&gt;H -->
<g id="edge16" class="edge"><title>D&#45;&gt;H</title>
<path fill="none" stroke="black" d="M246.537,-531.123C262.495,-525.129 283.588,-515.887 300,-504 310.344,-496.508 320.167,-486.409 328.06,-477.248"/>
<polygon fill="black" stroke="black" points="330.772,-479.459 334.463,-469.528 325.385,-474.99 330.772,-479.459"/>
<text text-anchor="middle" x="319.5" y="-492.8" font-family="Times,serif" font-size="14.00">1</text>
</g>
<!-- G&#45;&gt;E -->
<g id="edge21" class="edge"><title>G&#45;&gt;E</title>
<path fill="none" stroke="black" d="M129.274,-180.356C119.287,-174.35 107.812,-166.032 100,-156 94.7048,-149.2 90.7517,-140.758 87.8636,-132.759"/>
<polygon fill="black" stroke="black" points="91.1301,-131.483 84.7541,-123.021 84.4618,-133.612 91.1301,-131.483"/>
<text text-anchor="middle" x="103.5" y="-144.8" font-family="Times,serif" font-size="14.00">2</text>
</g>
<!-- G&#45;&gt;C -->
<g id="edge20" class="edge"><title>G&#45;&gt;C</title>
<path fill="none" stroke="black" d="M153.618,-210.053C154.77,-215.747 156.004,-222.135 157,-228 158.257,-235.401 159.456,-243.445 160.496,-250.875"/>
<polygon fill="black" stroke="black" points="157.035,-251.399 161.849,-260.837 163.971,-250.457 157.035,-251.399"/>
<text text-anchor="middle" x="162.5" y="-231.8" font-family="Times,serif" font-size="14.00">5</text>
</g>
<!-- G&#45;&gt;I -->
<g id="edge23" class="edge"><title>G&#45;&gt;I</title>
<path fill="none" stroke="black" d="M148.109,-173.879C144.808,-144.001 137.972,-82.1129 134.013,-46.2736"/>
<polygon fill="black" stroke="black" points="137.461,-45.6068 132.884,-36.0516 130.503,-46.3755 137.461,-45.6068"/>
<text text-anchor="middle" x="145.5" y="-101.3" font-family="Times,serif" font-size="14.00">1</text>
</g>
<!-- G&#45;&gt;H -->
<g id="edge22" class="edge"><title>G&#45;&gt;H</title>
<path fill="none" stroke="black" d="M177.351,-193.129C230.687,-194.024 345.521,-199.318 370,-228 424.532,-291.893 394.867,-336.765 370,-417 368.783,-420.926 366.957,-424.802 364.846,-428.465"/>
<polygon fill="black" stroke="black" points="361.777,-426.76 359.191,-437.034 367.62,-430.615 361.777,-426.76"/>
<text text-anchor="middle" x="402.5" y="-318.8" font-family="Times,serif" font-size="14.00">2</text>
</g>
<!-- I&#45;&gt;E -->
<g id="edge27" class="edge"><title>I&#45;&gt;E</title>
<path fill="none" stroke="black" d="M121.638,-34.9162C114.316,-47.3627 104.005,-64.8921 95.601,-79.1784"/>
<polygon fill="black" stroke="black" points="92.4581,-77.6182 90.4046,-88.0122 98.4916,-81.1674 92.4581,-77.6182"/>
<text text-anchor="middle" x="111.5" y="-57.8" font-family="Times,serif" font-size="14.00">4</text>
</g>
<!-- I&#45;&gt;G -->
<g id="edge28" class="edge"><title>I&#45;&gt;G</title>
<path fill="none" stroke="black" d="M140.672,-34.8738C143.81,-40.6984 146.995,-47.4679 149,-54 162.366,-97.5455 164.717,-110.81 159,-156 158.657,-158.708 158.171,-161.506 157.601,-164.285"/>
<polygon fill="black" stroke="black" points="154.181,-163.538 155.266,-174.077 160.99,-165.161 154.181,-163.538"/>
<text text-anchor="middle" x="164.5" y="-101.3" font-family="Times,serif" font-size="14.00">1</text>
</g>
<!-- F&#45;&gt;C -->
<g id="edge17" class="edge"><title>F&#45;&gt;C</title>
<path fill="none" stroke="black" d="M251.981,-350.537C241.139,-340.299 226.003,-326.415 212,-315 205.255,-309.502 197.742,-303.826 190.7,-298.687"/>
<polygon fill="black" stroke="black" points="192.287,-295.516 182.125,-292.518 188.199,-301.199 192.287,-295.516"/>
<text text-anchor="middle" x="232.5" y="-318.8" font-family="Times,serif" font-size="14.00">1</text>
</g>
<!-- F&#45;&gt;D -->
<g id="edge18" class="edge"><title>F&#45;&gt;D</title>
<path fill="none" stroke="black" d="M268.22,-384.137C269.391,-411.233 268.579,-464.903 248,-504 245.965,-507.866 243.555,-511.792 241.047,-515.55"/>
<polygon fill="black" stroke="black" points="238.057,-513.716 235.149,-523.904 243.776,-517.754 238.057,-513.716"/>
<text text-anchor="middle" x="269.5" y="-449.3" font-family="Times,serif" font-size="14.00">2</text>
</g>
<!-- F&#45;&gt;H -->
<g id="edge19" class="edge"><title>F&#45;&gt;H</title>
<path fill="none" stroke="black" d="M285.607,-379.441C294.169,-385.655 304.145,-393.627 312,-402 319.068,-409.534 325.725,-418.664 331.244,-427.05"/>
<polygon fill="black" stroke="black" points="328.444,-429.17 336.752,-435.746 334.358,-425.425 328.444,-429.17"/>
<text text-anchor="middle" x="326.5" y="-405.8" font-family="Times,serif" font-size="14.00">1</text>
</g>
<!-- H&#45;&gt;D -->
<g id="edge24" class="edge"><title>H&#45;&gt;D</title>
<path fill="none" stroke="black" d="M343.277,-471.365C340.752,-482.077 335.967,-495.372 327,-504 308.868,-521.447 281.762,-530.207 259.768,-534.601"/>
<polygon fill="black" stroke="black" points="258.994,-531.183 249.759,-536.376 260.217,-538.075 258.994,-531.183"/>
<text text-anchor="middle" x="339.5" y="-492.8" font-family="Times,serif" font-size="14.00">1</text>
</g>
<!-- H&#45;&gt;G -->
<g id="edge26" class="edge"><title>H&#45;&gt;G</title>
<path fill="none" stroke="black" d="M343.166,-434.964C341.221,-425.119 338.221,-412.619 334,-402 323.778,-376.284 319.748,-370.03 303,-348 262.707,-295 205.461,-241.58 173.644,-213.392"/>
<polygon fill="black" stroke="black" points="175.95,-210.759 166.129,-206.784 171.328,-216.016 175.95,-210.759"/>
<text text-anchor="middle" x="290.5" y="-318.8" font-family="Times,serif" font-size="14.00">2</text>
</g>
<!-- H&#45;&gt;F -->
<g id="edge25" class="edge"><title>H&#45;&gt;F</title>
<path fill="none" stroke="black" d="M329.505,-438.266C322.338,-432.031 313.998,-424.406 307,-417 299.213,-408.758 291.281,-399.147 284.556,-390.565"/>
<polygon fill="black" stroke="black" points="287.156,-388.205 278.283,-382.416 281.609,-392.475 287.156,-388.205"/>
<text text-anchor="middle" x="310.5" y="-405.8" font-family="Times,serif" font-size="14.00">1</text>
</g>
</g>
</svg>
